<svg id="visual" viewBox="0 0 960 540" width="960" height="540" xmlns="http://www.w3.org/2000/svg" xmlns:xlink="http://www.w3.org/1999/xlink" version="1.1"><g stroke-width="1" stroke-linejoin="bevel"><path d="M469 203L485 124L383 78Z" fill="#23394a" stroke="#23394a"></path><path d="M383 78L368 248L469 203Z" fill="#437893" stroke="#437893"></path><path d="M485 124L491 0L383 78Z" fill="#284254" stroke="#284254"></path><path d="M368 248L486 359L469 203Z" fill="#3f6f88" stroke="#3f6f88"></path><path d="M491 0L326 0L383 78Z" fill="#4c8ca9" stroke="#4c8ca9"></path><path d="M383 78L223 184L368 248Z" fill="#437893" stroke="#437893"></path><path d="M368 248L263 333L362 316Z" fill="#437893" stroke="#437893"></path><path d="M326 0L230 94L383 78Z" fill="#1e3140" stroke="#1e3140"></path><path d="M230 94L223 184L383 78Z" fill="#3b657e" stroke="#3b657e"></path><path d="M622 197L625 131L485 124Z" fill="#4c8ca9" stroke="#4c8ca9"></path><path d="M485 124L584 0L491 0Z" fill="#284254" stroke="#284254"></path><path d="M622 197L485 124L469 203Z" fill="#284254" stroke="#284254"></path><path d="M620 302L622 197L469 203Z" fill="#1e3140" stroke="#1e3140"></path><path d="M362 316L486 359L368 248Z" fill="#1e3140" stroke="#1e3140"></path><path d="M326 0L249 0L230 94Z" fill="#4c8ca9" stroke="#4c8ca9"></path><path d="M625 131L584 0L485 124Z" fill="#1e3140" stroke="#1e3140"></path><path d="M223 184L263 333L368 248Z" fill="#1e3140" stroke="#1e3140"></path><path d="M362 316L457 432L486 359Z" fill="#315369" stroke="#315369"></path><path d="M486 359L620 302L469 203Z" fill="#315369" stroke="#315369"></path><path d="M622 197L708 106L625 131Z" fill="#48829e" stroke="#48829e"></path><path d="M358 434L457 432L362 316Z" fill="#437893" stroke="#437893"></path><path d="M486 359L577 408L620 302Z" fill="#48829e" stroke="#48829e"></path><path d="M263 333L358 434L362 316Z" fill="#1e3140" stroke="#1e3140"></path><path d="M138 0L123 108L230 94Z" fill="#365c73" stroke="#365c73"></path><path d="M230 94L123 108L223 184Z" fill="#4c8ca9" stroke="#4c8ca9"></path><path d="M223 184L126 291L263 333Z" fill="#365c73" stroke="#365c73"></path><path d="M718 243L708 106L622 197Z" fill="#437893" stroke="#437893"></path><path d="M625 131L684 0L584 0Z" fill="#1e3140" stroke="#1e3140"></path><path d="M126 291L258 412L263 333Z" fill="#2d4a5e" stroke="#2d4a5e"></path><path d="M263 333L258 412L358 434Z" fill="#1e3140" stroke="#1e3140"></path><path d="M457 432L577 408L486 359Z" fill="#365c73" stroke="#365c73"></path><path d="M620 302L718 243L622 197Z" fill="#4c8ca9" stroke="#4c8ca9"></path><path d="M708 106L684 0L625 131Z" fill="#4c8ca9" stroke="#4c8ca9"></path><path d="M249 0L138 0L230 94Z" fill="#365c73" stroke="#365c73"></path><path d="M94 242L126 291L223 184Z" fill="#2d4a5e" stroke="#2d4a5e"></path><path d="M734 353L718 243L620 302Z" fill="#284254" stroke="#284254"></path><path d="M123 108L94 242L223 184Z" fill="#437893" stroke="#437893"></path><path d="M0 89L94 242L123 108Z" fill="#1e3140" stroke="#1e3140"></path><path d="M697 426L734 353L620 302Z" fill="#4c8ca9" stroke="#4c8ca9"></path><path d="M718 243L833 97L708 106Z" fill="#365c73" stroke="#365c73"></path><path d="M236 540L358 434L258 412Z" fill="#3b657e" stroke="#3b657e"></path><path d="M236 540L354 540L358 434Z" fill="#437893" stroke="#437893"></path><path d="M358 434L354 540L457 432Z" fill="#2d4a5e" stroke="#2d4a5e"></path><path d="M457 432L499 540L577 408Z" fill="#3f6f88" stroke="#3f6f88"></path><path d="M577 408L697 426L620 302Z" fill="#2d4a5e" stroke="#2d4a5e"></path><path d="M587 540L697 426L577 408Z" fill="#1e3140" stroke="#1e3140"></path><path d="M354 540L499 540L457 432Z" fill="#315369" stroke="#315369"></path><path d="M0 300L96 417L126 291Z" fill="#3b657e" stroke="#3b657e"></path><path d="M126 291L96 417L258 412Z" fill="#365c73" stroke="#365c73"></path><path d="M138 0L0 89L123 108Z" fill="#437893" stroke="#437893"></path><path d="M94 242L0 300L126 291Z" fill="#1e3140" stroke="#1e3140"></path><path d="M0 89L0 249L94 242Z" fill="#3b657e" stroke="#3b657e"></path><path d="M873 182L833 97L718 243Z" fill="#3b657e" stroke="#3b657e"></path><path d="M708 106L831 0L684 0Z" fill="#2d4a5e" stroke="#2d4a5e"></path><path d="M499 540L587 540L577 408Z" fill="#48829e" stroke="#48829e"></path><path d="M96 417L236 540L258 412Z" fill="#3f6f88" stroke="#3f6f88"></path><path d="M0 249L0 300L94 242Z" fill="#315369" stroke="#315369"></path><path d="M138 0L0 0L0 89Z" fill="#3f6f88" stroke="#3f6f88"></path><path d="M862 466L818 331L734 353Z" fill="#365c73" stroke="#365c73"></path><path d="M734 353L818 331L718 243Z" fill="#365c73" stroke="#365c73"></path><path d="M862 466L734 353L697 426Z" fill="#315369" stroke="#315369"></path><path d="M833 97L831 0L708 106Z" fill="#365c73" stroke="#365c73"></path><path d="M818 331L873 182L718 243Z" fill="#365c73" stroke="#365c73"></path><path d="M833 97L960 0L831 0Z" fill="#48829e" stroke="#48829e"></path><path d="M587 540L718 540L697 426Z" fill="#3f6f88" stroke="#3f6f88"></path><path d="M0 300L0 443L96 417Z" fill="#437893" stroke="#437893"></path><path d="M96 417L88 540L236 540Z" fill="#23394a" stroke="#23394a"></path><path d="M0 443L88 540L96 417Z" fill="#23394a" stroke="#23394a"></path><path d="M718 540L862 466L697 426Z" fill="#1e3140" stroke="#1e3140"></path><path d="M960 352L960 196L873 182Z" fill="#48829e" stroke="#48829e"></path><path d="M960 352L873 182L818 331Z" fill="#284254" stroke="#284254"></path><path d="M873 182L960 97L833 97Z" fill="#284254" stroke="#284254"></path><path d="M960 196L960 97L873 182Z" fill="#365c73" stroke="#365c73"></path><path d="M0 443L0 540L88 540Z" fill="#315369" stroke="#315369"></path><path d="M960 97L960 0L833 97Z" fill="#3b657e" stroke="#3b657e"></path><path d="M862 466L960 352L818 331Z" fill="#437893" stroke="#437893"></path><path d="M718 540L855 540L862 466Z" fill="#1e3140" stroke="#1e3140"></path><path d="M862 466L960 429L960 352Z" fill="#23394a" stroke="#23394a"></path><path d="M960 540L960 429L862 466Z" fill="#1e3140" stroke="#1e3140"></path><path d="M855 540L960 540L862 466Z" fill="#365c73" stroke="#365c73"></path></g></svg>